Coordinates
version=1
nRows=17
nColumns=38
inDegrees=no

Units are S.I. units (second, meters, Newtons, ...)
If the header above contains a line with 'inDegrees', this indicates whether rotational values are in degrees (yes) or radians (no).

endheader
time	pelvis_tilt	pelvis_list	pelvis_rotation	pelvis_tx	pelvis_ty	pelvis_tz	hip_flexion_r	hip_adduction_r	hip_rotation_r	knee_angle_r	ankle_angle_r	subtalar_angle_r	mtp_angle_r	hip_flexion_l	hip_adduction_l	hip_rotation_l	knee_angle_l	ankle_angle_l	subtalar_angle_l	mtp_angle_l	lumbar_extension	lumbar_bending	lumbar_rotation	arm_flex_r	arm_add_r	arm_rot_r	elbow_flex_r	pro_sup_r	wrist_flex_r	wrist_dev_r	arm_flex_l	arm_add_l	arm_rot_l	elbow_flex_l	pro_sup_l	wrist_flex_l	wrist_dev_l
1.68	1.68756	1.47747	2.88197	0.90366	-0.642401	0.917379	0.0495904	-0.187767	-0.0113011	1.04874	-0.142278	0	0	0.550047	0.0839783	-0.321618	0.602016	0.0988235	0	0	-0.0170341	-0.109752	0.0148521	-0.102396	-0.146088	-0.188575	0.238464	1.3532	0	0	-0.504553	-0.616588	0.342672	0.831168	0.662702	0	0
1.69	1.70768	1.4723	2.86831	0.904169	-0.654326	0.918134	0.0862498	-0.192558	-0.00347653	1.09994	-0.201165	0	0	0.541504	0.094365	-0.318236	0.604075	0.102455	0	0	-0.0136273	-0.116369	0.00930132	-0.105546	-0.144706	-0.194344	0.243685	1.35477	0	0	-0.509235	-0.622766	0.334629	0.837373	0.668571	0	0
1.7	1.73476	1.46103	2.84896	0.904447	-0.666074	0.91836	0.129672	-0.207641	-0.00117475	1.15627	-0.239911	0	0	0.536217	0.112914	-0.30868	0.605533	0.105905	0	0	-0.00747628	-0.130344	0.00202291	-0.109321	-0.140988	-0.201883	0.250814	1.35716	0	0	-0.518096	-0.6322	0.323305	0.849785	0.675102	0	0
1.71	1.70169	1.46464	2.88864	0.904865	-0.677442	0.921142	0.150987	-0.195725	0.0162162	1.19166	-0.242103	0	0	0.516579	0.120706	-0.290834	0.601862	0.108369	0	0	-0.0141168	-0.128422	-0.00418008	-0.106938	-0.140947	-0.205217	0.250803	1.35565	0	0	-0.512127	-0.632567	0.320464	0.844089	0.678933	0	0
1.72	1.68791	1.45757	2.91005	0.904876	-0.68892	0.922654	0.18595	-0.206477	0.0197931	1.23907	-0.217019	0	0	0.501292	0.138175	-0.275292	0.596737	0.111942	0	0	-0.0145499	-0.139269	-0.0123435	-0.105393	-0.13793	-0.204909	0.250171	1.35166	0	0	-0.515976	-0.63933	0.312331	0.851459	0.677859	0	0
1.73	1.64586	1.45846	2.95787	0.904873	-0.700014	0.925423	0.21008	-0.201534	0.032343	1.27154	-0.180764	0	0	0.477684	0.147333	-0.260119	0.587062	0.115939	0	0	-0.0204718	-0.141278	-0.0220407	-0.117043	-0.152596	-0.0317533	0.280385	1.13388	0	0	-0.516607	-0.638482	0.301349	0.851073	0.676788	0	0
1.74	1.58275	1.46001	3.02859	0.904717	-0.711338	0.928531	0.213088	-0.195085	0.0334838	1.27883	-0.128945	0	0	0.448571	0.15534	-0.246409	0.573319	0.120106	0	0	-0.0303484	-0.142646	-0.0271788	-0.107107	-0.143023	-0.108961	0.263988	1.2226	0	0	-0.508764	-0.64402	0.30829	0.853038	0.651694	0	0
1.75	1.55336	1.4616	3.06332	0.904455	-0.722129	0.931286	0.23845	-0.189174	0.0416656	1.29919	-0.100985	0	0	0.42385	0.160511	-0.236295	0.558855	0.124463	0	0	-0.0340056	-0.139063	-0.0210136	-0.110941	-0.140341	-0.13609	0.267551	1.23334	0	0	-0.483832	-0.651203	0.336182	0.843761	0.640817	0	0
1.76	1.51798	1.4672	3.10236	0.904549	-0.732514	0.934587	0.262531	-0.179084	0.049353	1.31085	-0.0831909	0	0	0.397098	0.161454	-0.226268	0.540869	0.127171	0	0	-0.0425889	-0.137085	-0.0326702	-0.0961789	-0.139485	-0.133216	0.254568	1.24779	0	0	-0.488248	-0.642112	0.307654	0.846417	0.641153	0	0
1.77	1.4935	1.47165	3.13202	0.904598	-0.742895	0.93748	0.287415	-0.171258	0.0513494	1.31819	-0.0693025	0	0	0.371892	0.163301	-0.216497	0.522745	0.130265	0	0	-0.0473833	-0.132848	-0.0358646	-0.0903841	-0.138849	-0.135897	0.248349	1.25307	0	0	-0.477155	-0.640283	0.308956	0.843815	0.635137	0	0
1.78	1.46948	1.47194	-3.11888	0.905038	-0.753555	0.939953	0.314132	-0.187475	0.0302579	1.32409	-0.0599919	0	0	0.345839	0.171135	-0.203732	0.502674	0.132481	0	0	-0.0513754	-0.132993	-0.0424781	-0.0858695	-0.137711	-0.138654	0.242172	1.25672	0	0	-0.46869	-0.640829	0.310362	0.845272	0.633185	0	0
1.79	1.44717	1.47699	-3.08972	0.905206	-0.763697	0.942516	0.336595	-0.1807	0.0301792	1.32029	-0.0485716	0	0	0.321786	0.172241	-0.191141	0.485307	0.135418	0	0	-0.0558536	-0.127576	-0.0473235	-0.0812645	-0.13735	-0.141384	0.237868	1.25932	0	0	-0.456657	-0.639655	0.313564	0.843539	0.635421	0	0
1.8	1.41557	1.48205	-3.05076	0.90541	-0.773795	0.94494	0.356616	-0.174422	0.0289112	1.31127	-0.0384523	0	0	0.297121	0.173034	-0.177457	0.468159	0.139109	0	0	-0.0603012	-0.122098	-0.055735	-0.0892161	-0.148824	-0.0125511	0.260312	1.10081	0	0	-0.448949	-0.636111	0.30996	0.842562	0.645806	0	0
1.81	1.37868	1.48878	-3.00695	0.905443	-0.783688	0.947318	0.37336	-0.158508	0.0358271	1.29537	-0.0284153	0	0	0.272872	0.170727	-0.164669	0.451528	0.143071	0	0	-0.0663348	-0.114526	-0.0586068	-0.0778959	-0.141411	-0.0941081	0.241222	1.19817	0	0	-0.433483	-0.636278	0.320786	0.842104	0.640121	0	0
1.82	1.41046	1.49997	-3.03869	0.905571	-0.792164	0.949396	0.430059	-0.140078	0.0556836	1.31211	-0.0515606	0	0	0.258746	0.162766	-0.156079	0.437389	0.145488	0	0	-0.066808	-0.101383	-0.0558783	-0.0725519	-0.14521	-0.084313	0.239491	1.1855	0	0	-0.413609	-0.630057	0.331547	0.835312	0.638729	0	0
1.83	1.31671	1.49807	-2.93028	0.905859	-0.803213	0.951089	0.422544	-0.151652	0.0310905	1.26905	-0.0310615	0	0	0.226757	0.169188	-0.1402	0.418716	0.150612	0	0	-0.0745005	-0.103929	-0.0704624	-0.0727961	-0.144119	-0.0736388	0.240442	1.17641	0	0	-0.411489	-0.634418	0.332997	0.846573	0.643088	0	0
1.84	1.30176	1.5073	-2.9116	0.906051	-0.812058	0.952884	0.45509	-0.13778	0.0372357	1.26357	-0.0301783	0	0	0.209557	0.161977	-0.13199	0.405463	0.154705	0	0	-0.0773736	-0.093104	-0.0726782	-0.0688531	-0.147598	-0.0607879	0.241046	1.16416	0	0	-0.395674	-0.628818	0.338507	0.842467	0.653819	0	0
